M48
METRIC,LZ,000.000
;FILE_FORMAT=3:3
;TYPE=PLATED
;Layer: PTH_Through_Via
;EasyEDA v6.5.42, 2024-04-23 01:25:34
;37435acb23be492c925ee77293ce4e4e,2f8dee597c2d402b932a0ab9ce23454b,10
;Gerber Generator version 0.2
;Holesize 1 = 0.310 mm
T01C0.310
%
G05
G90
T01
X042799Y-084074
X026035Y-092202
X026543Y-081915
X039497Y-097790
X062103Y-083947
X060579Y-078232
X065278Y-079756
X065024Y-077216
X062230Y-081407
X062357Y-079883
X036449Y-081280
X035687Y-080772
X034925Y-081280
X001143Y-020066
X004699Y-089027
X001778Y-039878
X005334Y-088265
X023241Y-085852
X002540Y-058039
X004699Y-087376
X003302Y-077724
X005334Y-086741
X017272Y-015240
X017272Y-025273
X017272Y-044450
X017272Y-063881
X055118Y-015621
X048768Y-076581
X055118Y-025654
X055118Y-044831
X055118Y-064008
X050292Y-079375
X017780Y-077597
X042799Y-085852
X042799Y-090932
X024892Y-076835
X031750Y-079502
X042799Y-093853
X024511Y-089916
M30
