M48
METRIC,LZ,000.000
;FILE_FORMAT=3:3
;TYPE=PLATED
;Layer: PTH_Through
;EasyEDA v6.5.42, 2024-04-23 01:25:34
;37435acb23be492c925ee77293ce4e4e,2f8dee597c2d402b932a0ab9ce23454b,10
;Gerber Generator version 0.2
;Holesize 1 = 0.310 mm
T01C0.310
;Holesize 2 = 0.800 mm
T02C0.800
;Holesize 3 = 1.000 mm
T03C1.000
;Holesize 4 = 1.093 mm
T04C1.093
;Holesize 5 = 1.499 mm
T05C1.499
;Holesize 6 = 1.651 mm
T06C1.651
%
G05
G90
T01
X042799Y-084074
X026035Y-092202
X026543Y-081915
X039497Y-097790
X062103Y-083947
X060579Y-078232
X065278Y-079756
X065024Y-077216
X062230Y-081407
X062357Y-079883
X036449Y-081280
X035687Y-080772
X034925Y-081280
X001143Y-020066
X004699Y-089027
X001778Y-039878
X005334Y-088265
X023241Y-085852
X002540Y-058039
X004699Y-087376
X003302Y-077724
X005334Y-086741
X017272Y-015240
X017272Y-025273
X017272Y-044450
X017272Y-063881
X055118Y-015621
X048768Y-076581
X055118Y-025654
X055118Y-044831
X055118Y-064008
X050292Y-079375
X017780Y-077597
X042799Y-085852
X042799Y-090932
X024892Y-076835
X031750Y-079502
X042799Y-093853
X024511Y-089916
T02
X077831Y-086748G85X077231Y-086748
X073751Y-086748G85X072951Y-086748
X073751Y-078098G85X072951Y-078098
X077831Y-078098G85X077231Y-078098
T03
X015437Y-084074
X005137Y-084074
T04
X065405Y-061595
X067945Y-061595
X008255Y-023495
X010795Y-023495
X027305Y-023495
X029845Y-023495
X046355Y-023495
X048895Y-023495
X065405Y-023495
X067945Y-023495
X008255Y-004445
X010795Y-004445
X027305Y-004445
X029845Y-004445
X046355Y-004445
X048895Y-004445
X065405Y-004445
X067945Y-004445
X008255Y-042545
X010795Y-042545
X027305Y-042545
X029845Y-042545
X046355Y-042545
X048895Y-042545
X065405Y-042545
X067945Y-042545
X008255Y-061595
X010795Y-061595
X027305Y-061595
X029845Y-061595
X046355Y-061595
X048895Y-061595
T05
X064135Y-033655
T06
X070485Y-069215
X064135Y-071755
X013335Y-031115
X006985Y-033655
X032385Y-031115
X026035Y-033655
X051435Y-031115
X045085Y-033655
X070485Y-031115
X013335Y-012065
X006985Y-014605
X032385Y-012065
X026035Y-014605
X051435Y-012065
X045085Y-014605
X070485Y-012065
X064135Y-014605
X013335Y-050165
X006985Y-052705
X032385Y-050165
X026035Y-052705
X051435Y-050165
X045085Y-052705
X070485Y-050165
X064135Y-052705
X013335Y-069215
X006985Y-071755
X032385Y-069215
X026035Y-071755
X051435Y-069215
X045085Y-071755
M30
