M48
METRIC,LZ,000.000
;FILE_FORMAT=3:3
;TYPE=NON_PLATED
;Layer: NPTH_Through
;EasyEDA v6.5.42, 2024-04-23 01:25:34
;37435acb23be492c925ee77293ce4e4e,2f8dee597c2d402b932a0ab9ce23454b,10
;Gerber Generator version 0.2
;Holesize 1 = 0.751 mm
T01C0.751
;Holesize 2 = 1.702 mm
T02C1.702
;Holesize 3 = 3.988 mm
T03C3.988
%
G05
G90
T01
X073851Y-085323
X073851Y-079523
T02
X071755Y-066675
X061595Y-066675
X014605Y-028575
X004445Y-028575
X033655Y-028575
X023495Y-028575
X052705Y-028575
X042545Y-028575
X071755Y-028575
X061595Y-028575
X014605Y-009525
X004445Y-009525
X033655Y-009525
X023495Y-009525
X052705Y-009525
X042545Y-009525
X071755Y-009525
X061595Y-009525
X014605Y-047625
X004445Y-047625
X033655Y-047625
X023495Y-047625
X052705Y-047625
X042545Y-047625
X071755Y-047625
X061595Y-047625
X014605Y-066675
X004445Y-066675
X033655Y-066675
X023495Y-066675
X052705Y-066675
X042545Y-066675
T03
X066675Y-066675
X066675Y-066675
X009525Y-028575
X009525Y-028575
X028575Y-028575
X028575Y-028575
X047625Y-028575
X047625Y-028575
X066675Y-028575
X066675Y-028575
X009525Y-009525
X009525Y-009525
X028575Y-009525
X028575Y-009525
X047625Y-009525
X047625Y-009525
X066675Y-009525
X066675Y-009525
X009525Y-047625
X009525Y-047625
X028575Y-047625
X028575Y-047625
X047625Y-047625
X047625Y-047625
X066675Y-047625
X066675Y-047625
X009525Y-066675
X009525Y-066675
X028575Y-066675
X028575Y-066675
X047625Y-066675
X047625Y-066675
M30
