G04 Layer: TopSolderMaskLayer*
G04 EasyEDA v6.5.42, 2024-04-23 01:25:34*
G04 37435acb23be492c925ee77293ce4e4e,2f8dee597c2d402b932a0ab9ce23454b,10*
G04 Gerber Generator version 0.2*
G04 Scale: 100 percent, Rotated: No, Reflected: No *
G04 Dimensions in millimeters *
G04 leading zeros omitted , absolute positions ,4 integer and 5 decimal *
%FSLAX45Y45*%
%MOMM*%

%AMMACRO1*1,1,$1,$2,$3*1,1,$1,$4,$5*1,1,$1,0-$2,0-$3*1,1,$1,0-$4,0-$5*20,1,$1,$2,$3,$4,$5,0*20,1,$1,$4,$5,0-$2,0-$3,0*20,1,$1,0-$2,0-$3,0-$4,0-$5,0*20,1,$1,0-$4,0-$5,$2,$3,0*4,1,4,$2,$3,$4,$5,0-$2,0-$3,0-$4,0-$5,$2,$3,0*%
%ADD10C,2.9972*%
%ADD11O,1.8796000000000002X2.3876*%
%ADD12MACRO1,0.1016X0.889X-0.889X-0.889X-0.889*%
%ADD13O,1.9015964X1.3015976000000002*%
%ADD14O,2.1015960000000002X1.3015976000000002*%
%ADD15C,1.6256*%

%LPD*%
D10*
G01*
X7048500Y-6921500D03*
G01*
X6413500Y-7175500D03*
D11*
G01*
X6540500Y-6159500D03*
D12*
G01*
X6794500Y-6159487D03*
D10*
G01*
X1333500Y-3111500D03*
G01*
X698500Y-3365500D03*
D11*
G01*
X825500Y-2349500D03*
D12*
G01*
X1079497Y-2349494D03*
D10*
G01*
X3238500Y-3111500D03*
G01*
X2603500Y-3365500D03*
D11*
G01*
X2730500Y-2349500D03*
D12*
G01*
X2984494Y-2349494D03*
D10*
G01*
X5143500Y-3111500D03*
G01*
X4508500Y-3365500D03*
D11*
G01*
X4635500Y-2349500D03*
D12*
G01*
X4889489Y-2349494D03*
D10*
G01*
X7048500Y-3111500D03*
G01*
X6413500Y-3365500D03*
D11*
G01*
X6540500Y-2349500D03*
D12*
G01*
X6794487Y-2349494D03*
D10*
G01*
X1333500Y-1206500D03*
G01*
X698500Y-1460500D03*
D11*
G01*
X825500Y-444500D03*
D12*
G01*
X1079497Y-444497D03*
D10*
G01*
X3238500Y-1206500D03*
G01*
X2603500Y-1460500D03*
D11*
G01*
X2730500Y-444500D03*
D12*
G01*
X2984494Y-444497D03*
D10*
G01*
X5143500Y-1206500D03*
G01*
X4508500Y-1460500D03*
D11*
G01*
X4635500Y-444500D03*
D12*
G01*
X4889500Y-444500D03*
D10*
G01*
X7048500Y-1206500D03*
G01*
X6413500Y-1460500D03*
D11*
G01*
X6540500Y-444500D03*
D12*
G01*
X6794487Y-444497D03*
D10*
G01*
X1333500Y-5016500D03*
G01*
X698500Y-5270500D03*
D11*
G01*
X825500Y-4254500D03*
D12*
G01*
X1079497Y-4254489D03*
D10*
G01*
X3238500Y-5016500D03*
G01*
X2603500Y-5270500D03*
D11*
G01*
X2730500Y-4254500D03*
D12*
G01*
X2984494Y-4254489D03*
D10*
G01*
X5143500Y-5016500D03*
G01*
X4508500Y-5270500D03*
D11*
G01*
X4635500Y-4254500D03*
D12*
G01*
X4889489Y-4254489D03*
D10*
G01*
X7048500Y-5016500D03*
G01*
X6413500Y-5270500D03*
D11*
G01*
X6540500Y-4254500D03*
D12*
G01*
X6794487Y-4254489D03*
D10*
G01*
X1333500Y-6921500D03*
G01*
X698500Y-7175500D03*
D11*
G01*
X825500Y-6159500D03*
D12*
G01*
X1079497Y-6159487D03*
D10*
G01*
X3238500Y-6921500D03*
G01*
X2603500Y-7175500D03*
D11*
G01*
X2730500Y-6159500D03*
D12*
G01*
X2984494Y-6159487D03*
D10*
G01*
X5143500Y-6921500D03*
G01*
X4508500Y-7175500D03*
D11*
G01*
X4635500Y-6159500D03*
D12*
G01*
X4889489Y-6159487D03*
D13*
G01*
X7753095Y-8674811D03*
D14*
G01*
X7335113Y-8674811D03*
G01*
X7335113Y-7809788D03*
D13*
G01*
X7753095Y-7809788D03*
D15*
G01*
X1543710Y-8407400D03*
G01*
X513689Y-8407400D03*
M02*
