G04 Layer: BottomSolderMaskLayer*
G04 EasyEDA v6.5.42, 2024-04-23 01:25:34*
G04 37435acb23be492c925ee77293ce4e4e,2f8dee597c2d402b932a0ab9ce23454b,10*
G04 Gerber Generator version 0.2*
G04 Scale: 100 percent, Rotated: No, Reflected: No *
G04 Dimensions in millimeters *
G04 leading zeros omitted , absolute positions ,4 integer and 5 decimal *
%FSLAX45Y45*%
%MOMM*%

%AMMACRO1*1,1,$1,$2,$3*1,1,$1,$4,$5*1,1,$1,0-$2,0-$3*1,1,$1,0-$4,0-$5*20,1,$1,$2,$3,$4,$5,0*20,1,$1,$4,$5,0-$2,0-$3,0*20,1,$1,0-$2,0-$3,0-$4,0-$5,0*20,1,$1,0-$4,0-$5,$2,$3,0*4,1,4,$2,$3,$4,$5,0-$2,0-$3,0-$4,0-$5,$2,$3,0*%
%ADD10C,2.9972*%
%ADD11O,1.8796000000000002X2.3876*%
%ADD12MACRO1,0.1016X0.889X-0.889X-0.889X-0.889*%
%ADD13R,1.0016X0.9016*%
%ADD14MACRO1,0.1016X0.4X0.45X-0.4X0.45*%
%ADD15R,1.4016X0.4016*%
%ADD16O,1.9015964X1.3015976000000002*%
%ADD17O,2.1015960000000002X1.3015976000000002*%
%ADD18MACRO1,0.1016X0.85X-0.9X0.85X0.9*%
%ADD19O,1.9968718000000003X0.542544*%
%ADD20O,0.542544X1.9968718000000003*%
%ADD21MACRO1,0.1016X-0.4X-0.45X0.4X-0.45*%
%ADD22MACRO1,0.1016X-0.395X0.27X-0.395X-0.27*%
%ADD23MACRO1,0.1016X0.395X0.27X0.395X-0.27*%
%ADD24MACRO1,0.1016X0.395X-0.27X0.395X0.27*%
%ADD25MACRO1,0.1016X-0.395X-0.27X-0.395X0.27*%
%ADD26MACRO1,0.1016X-0.45X-0.4X0.45X-0.4*%
%ADD27R,1.4516X1.5116*%
%ADD28MACRO1,0.1016X0.864X-0.595X0.864X0.595*%
%ADD29MACRO1,0.1016X-0.85X-0.5X0.85X-0.5*%
%ADD30MACRO1,0.1016X-0.55X-0.35X0.55X-0.35*%
%ADD31MACRO1,0.1016X-0.3X-0.35X0.3X-0.35*%
%ADD32MACRO1,0.1016X0.4032X-0.432X0.4032X0.432*%
%ADD33MACRO1,0.1016X-0.4032X-0.432X-0.4032X0.432*%
%ADD34MACRO1,0.1016X0.2828X-0.27X0.2828X0.27*%
%ADD35MACRO1,0.1016X-0.2828X-0.27X-0.2828X0.27*%
%ADD36R,0.9656X0.9081*%
%ADD37MACRO1,0.1016X-0.5663X0.6885X-0.5663X-0.6885*%
%ADD38MACRO1,0.1016X0.5663X0.6885X0.5663X-0.6885*%
%ADD39R,0.9016X1.1016*%
%ADD40R,1.4786X1.2341*%
%ADD41C,1.6256*%
%ADD42C,0.0198*%

%LPD*%
D10*
G01*
X7048500Y-6921500D03*
G01*
X6413500Y-7175500D03*
D11*
G01*
X6540500Y-6159500D03*
D12*
G01*
X6794500Y-6159487D03*
D10*
G01*
X1333500Y-3111500D03*
G01*
X698500Y-3365500D03*
D11*
G01*
X825500Y-2349500D03*
D12*
G01*
X1079497Y-2349494D03*
D10*
G01*
X3238500Y-3111500D03*
G01*
X2603500Y-3365500D03*
D11*
G01*
X2730500Y-2349500D03*
D12*
G01*
X2984494Y-2349494D03*
D10*
G01*
X5143500Y-3111500D03*
G01*
X4508500Y-3365500D03*
D11*
G01*
X4635500Y-2349500D03*
D12*
G01*
X4889489Y-2349494D03*
D10*
G01*
X7048500Y-3111500D03*
G01*
X6413500Y-3365500D03*
D11*
G01*
X6540500Y-2349500D03*
D12*
G01*
X6794487Y-2349494D03*
D10*
G01*
X1333500Y-1206500D03*
G01*
X698500Y-1460500D03*
D11*
G01*
X825500Y-444500D03*
D12*
G01*
X1079497Y-444497D03*
D10*
G01*
X3238500Y-1206500D03*
G01*
X2603500Y-1460500D03*
D11*
G01*
X2730500Y-444500D03*
D12*
G01*
X2984494Y-444497D03*
D10*
G01*
X5143500Y-1206500D03*
G01*
X4508500Y-1460500D03*
D11*
G01*
X4635500Y-444500D03*
D12*
G01*
X4889500Y-444500D03*
D10*
G01*
X7048500Y-1206500D03*
G01*
X6413500Y-1460500D03*
D11*
G01*
X6540500Y-444500D03*
D12*
G01*
X6794487Y-444497D03*
D10*
G01*
X1333500Y-5016500D03*
G01*
X698500Y-5270500D03*
D11*
G01*
X825500Y-4254500D03*
D12*
G01*
X1079497Y-4254489D03*
D10*
G01*
X3238500Y-5016500D03*
G01*
X2603500Y-5270500D03*
D11*
G01*
X2730500Y-4254500D03*
D12*
G01*
X2984494Y-4254489D03*
D10*
G01*
X5143500Y-5016500D03*
G01*
X4508500Y-5270500D03*
D11*
G01*
X4635500Y-4254500D03*
D12*
G01*
X4889489Y-4254489D03*
D10*
G01*
X7048500Y-5016500D03*
G01*
X6413500Y-5270500D03*
D11*
G01*
X6540500Y-4254500D03*
D12*
G01*
X6794487Y-4254489D03*
D10*
G01*
X1333500Y-6921500D03*
G01*
X698500Y-7175500D03*
D11*
G01*
X825500Y-6159500D03*
D12*
G01*
X1079497Y-6159487D03*
D10*
G01*
X3238500Y-6921500D03*
G01*
X2603500Y-7175500D03*
D11*
G01*
X2730500Y-6159500D03*
D12*
G01*
X2984494Y-6159487D03*
D10*
G01*
X5143500Y-6921500D03*
G01*
X4508500Y-7175500D03*
D11*
G01*
X4635500Y-6159500D03*
D12*
G01*
X4889489Y-6159487D03*
D13*
G01*
X2705100Y-9455302D03*
G01*
X2705100Y-9315297D03*
D14*
G01*
X3687429Y-9780958D03*
G01*
X3827429Y-9780958D03*
D15*
G01*
X7258278Y-8067294D03*
G01*
X7258278Y-8117306D03*
G01*
X7258278Y-8167293D03*
G01*
X7258278Y-8217306D03*
G01*
X7258278Y-8267293D03*
G01*
X7258278Y-8317306D03*
G01*
X7258278Y-8367268D03*
G01*
X7258278Y-8417305D03*
G01*
X7258304Y-7907299D03*
G01*
X7258278Y-7937296D03*
G01*
X7258304Y-7987309D03*
G01*
X7258304Y-8017306D03*
G01*
X7258304Y-8467293D03*
G01*
X7258304Y-8497315D03*
G01*
X7258278Y-8547303D03*
G01*
X7258278Y-8577300D03*
D16*
G01*
X7753095Y-8674811D03*
D17*
G01*
X7335113Y-8674811D03*
G01*
X7335113Y-7809788D03*
D16*
G01*
X7753095Y-7809788D03*
D18*
G01*
X5918200Y-5127448D03*
G01*
X5918200Y-5565941D03*
G01*
X5918200Y-3222453D03*
G01*
X5918200Y-3660946D03*
G01*
X5918189Y-1317456D03*
G01*
X5918189Y-1755948D03*
G01*
X4013200Y-1317454D03*
G01*
X4013200Y-1755947D03*
G01*
X4013207Y-3222445D03*
G01*
X4013207Y-3660938D03*
G01*
X4013207Y-5127440D03*
G01*
X4013207Y-5565933D03*
G01*
X3962400Y-7057853D03*
G01*
X3962400Y-7496346D03*
G01*
X2108197Y-1317466D03*
G01*
X2108197Y-1755959D03*
G01*
X2108200Y-3222458D03*
G01*
X2108200Y-3660951D03*
G01*
X2108200Y-5127453D03*
G01*
X2108200Y-5565946D03*
G01*
X2108200Y-7033464D03*
G01*
X2108200Y-7471957D03*
G01*
X215897Y-1316460D03*
G01*
X215897Y-1754953D03*
G01*
X215897Y-3221452D03*
G01*
X215897Y-3659945D03*
G01*
X215897Y-5126447D03*
G01*
X215897Y-5564940D03*
G01*
X215897Y-7032453D03*
G01*
X215897Y-7470946D03*
G01*
X5918200Y-7033459D03*
G01*
X5918200Y-7471952D03*
D19*
G01*
X4075887Y-8510955D03*
G01*
X4075887Y-8589695D03*
G01*
X4075887Y-8668435D03*
G01*
X4075887Y-8747175D03*
G01*
X4075887Y-8825915D03*
G01*
X4075887Y-8904655D03*
G01*
X4075887Y-8983395D03*
G01*
X4075887Y-9062135D03*
G01*
X4075887Y-9140875D03*
G01*
X4075887Y-9219615D03*
G01*
X4075887Y-9298355D03*
D20*
G01*
X3884447Y-9489795D03*
G01*
X3805707Y-9489795D03*
G01*
X3726967Y-9489795D03*
G01*
X3648227Y-9489795D03*
G01*
X3569487Y-9489795D03*
G01*
X3490747Y-9489795D03*
G01*
X3412007Y-9489795D03*
G01*
X3333267Y-9489795D03*
G01*
X3254527Y-9489795D03*
G01*
X3175787Y-9489795D03*
G01*
X3097047Y-9489795D03*
D19*
G01*
X2905607Y-9298355D03*
G01*
X2905607Y-9219615D03*
G01*
X2905607Y-9140875D03*
G01*
X2905607Y-9062135D03*
G01*
X2905607Y-8983395D03*
G01*
X2905607Y-8904655D03*
G01*
X2905607Y-8825915D03*
G01*
X2905607Y-8747175D03*
G01*
X2905607Y-8668435D03*
G01*
X2905607Y-8589695D03*
G01*
X2905607Y-8510955D03*
D20*
G01*
X3097047Y-8319515D03*
G01*
X3175787Y-8319515D03*
G01*
X3254527Y-8319515D03*
G01*
X3333267Y-8319515D03*
G01*
X3412007Y-8319515D03*
G01*
X3490747Y-8319515D03*
G01*
X3569487Y-8319515D03*
G01*
X3648227Y-8319515D03*
G01*
X3726967Y-8319515D03*
G01*
X3805707Y-8319515D03*
G01*
X3884447Y-8319515D03*
D21*
G01*
X2952899Y-8128000D03*
G01*
X2812900Y-8128000D03*
D22*
G01*
X1946805Y-9728200D03*
D23*
G01*
X1837794Y-9728200D03*
D24*
G01*
X1837794Y-9258300D03*
D25*
G01*
X1946805Y-9258300D03*
D26*
G01*
X1962301Y-9444598D03*
G01*
X1962301Y-9554598D03*
G01*
X1822300Y-9554599D03*
G01*
X1822300Y-9444598D03*
D27*
G01*
X4445000Y-9167799D03*
G01*
X4445000Y-8967800D03*
D28*
G01*
X4457700Y-8272500D03*
G01*
X4457700Y-7983499D03*
D29*
G01*
X5727900Y-9405216D03*
G01*
X6387899Y-9405221D03*
G01*
X5727900Y-9035178D03*
G01*
X6387899Y-9035181D03*
D30*
G01*
X6338496Y-8170396D03*
D31*
G01*
X6508498Y-8170396D03*
G01*
X6508498Y-8390393D03*
G01*
X6318496Y-8390393D03*
D32*
G01*
X2490075Y-8445500D03*
D33*
G01*
X2640724Y-8445500D03*
D34*
G01*
X5811417Y-8191500D03*
D35*
G01*
X5897982Y-8191500D03*
D34*
G01*
X5811417Y-8369300D03*
D35*
G01*
X5897982Y-8369300D03*
D36*
G01*
X5384800Y-9206636D03*
G01*
X5384800Y-9055963D03*
D37*
G01*
X6856404Y-7975600D03*
D38*
G01*
X6656395Y-7975600D03*
D37*
G01*
X6856404Y-8597900D03*
D38*
G01*
X6656395Y-8597900D03*
D39*
G01*
X1225295Y-7898688D03*
G01*
X1130300Y-8128711D03*
G01*
X1035304Y-7898714D03*
D40*
G01*
X1905000Y-468299D03*
G01*
X1905000Y-268300D03*
G01*
X5715000Y-468299D03*
G01*
X5715000Y-268300D03*
G01*
X1892300Y-2360599D03*
G01*
X1892300Y-2160600D03*
G01*
X5715000Y-2360599D03*
G01*
X5715000Y-2160600D03*
G01*
X1892300Y-4278299D03*
G01*
X1892300Y-4078300D03*
G01*
X5727700Y-4265599D03*
G01*
X5727700Y-4065600D03*
G01*
X1905000Y-6208699D03*
G01*
X1905000Y-6008700D03*
G01*
X5727700Y-6183299D03*
G01*
X5727700Y-5983300D03*
D41*
G01*
X1543710Y-8407400D03*
G01*
X513689Y-8407400D03*
D14*
G01*
X3828900Y-8064500D03*
G01*
X3968899Y-8064500D03*
M02*
