G04 Layer: BottomPasteMaskLayer*
G04 EasyEDA v6.5.42, 2024-04-23 01:25:34*
G04 37435acb23be492c925ee77293ce4e4e,2f8dee597c2d402b932a0ab9ce23454b,10*
G04 Gerber Generator version 0.2*
G04 Scale: 100 percent, Rotated: No, Reflected: No *
G04 Dimensions in millimeters *
G04 leading zeros omitted , absolute positions ,4 integer and 5 decimal *
%FSLAX45Y45*%
%MOMM*%

%AMMACRO1*21,1,$1,$2,0,0,$3*%
%ADD10MACRO1,0.8001X0.9002X-90.0000*%
%ADD11MACRO1,0.7998X0.9002X0.0000*%
%ADD12MACRO1,0.8001X0.9002X0.0000*%
%ADD13MACRO1,1.7998X1.7X90.0000*%
%ADD14MACRO1,1.8001X1.7X90.0000*%
%ADD15MACRO1,1.8001X1.6998X90.0000*%
%ADD16MACRO1,1.7998X1.6998X90.0000*%
%ADD17O,1.8952718000000002X0.440944*%
%ADD18O,0.440944X1.8952718000000002*%
%ADD19MACRO1,0.9002X0.7998X0.0000*%
%ADD20MACRO1,0.8999X0.7998X0.0000*%
%ADD21MACRO1,1.1902X1.7282X90.0000*%
%ADD22MACRO1,1.7X1X0.0000*%
%ADD23MACRO1,1.1001X0.7X0.0000*%
%ADD24MACRO1,0.5999X0.7X0.0000*%
%ADD25MACRO1,0.5999X0.6998X0.0000*%
%ADD26MACRO1,1X0.8001X-90.0000*%
%ADD27C,0.0196*%

%LPD*%
G36*
X7193280Y-8532317D02*
G01*
X7193280Y-8592312D01*
X7323277Y-8592312D01*
X7323277Y-8532317D01*
G37*
G36*
X7193280Y-8152282D02*
G01*
X7193280Y-8182305D01*
X7323277Y-8182305D01*
X7323277Y-8152282D01*
G37*
G36*
X7193280Y-7892288D02*
G01*
X7193280Y-7952282D01*
X7323277Y-7952282D01*
X7323277Y-7892288D01*
G37*
G36*
X7193280Y-8252307D02*
G01*
X7193280Y-8282279D01*
X7323277Y-8282279D01*
X7323277Y-8252307D01*
G37*
G36*
X7193280Y-8402320D02*
G01*
X7193280Y-8432292D01*
X7323277Y-8432292D01*
X7323277Y-8402320D01*
G37*
G36*
X7193280Y-8102295D02*
G01*
X7193280Y-8132318D01*
X7323277Y-8132318D01*
X7323277Y-8102295D01*
G37*
G36*
X7193280Y-8352281D02*
G01*
X7193280Y-8382253D01*
X7323277Y-8382253D01*
X7323277Y-8352281D01*
G37*
G36*
X7193280Y-8302294D02*
G01*
X7193280Y-8332317D01*
X7323277Y-8332317D01*
X7323277Y-8302294D01*
G37*
G36*
X7193280Y-8052308D02*
G01*
X7193280Y-8082280D01*
X7323277Y-8082280D01*
X7323277Y-8052308D01*
G37*
G36*
X7193280Y-8202320D02*
G01*
X7193280Y-8232292D01*
X7323277Y-8232292D01*
X7323277Y-8202320D01*
G37*
G36*
X7193280Y-7972298D02*
G01*
X7193280Y-8032292D01*
X7323277Y-8032292D01*
X7323277Y-7972298D01*
G37*
G36*
X7295134Y-7749794D02*
G01*
X7289139Y-7750098D01*
X7283246Y-7750962D01*
X7277455Y-7752435D01*
X7271816Y-7754518D01*
X7266431Y-7757109D01*
X7261301Y-7760208D01*
X7256576Y-7763814D01*
X7252157Y-7767878D01*
X7248194Y-7772400D01*
X7244740Y-7777225D01*
X7241743Y-7782407D01*
X7239253Y-7787843D01*
X7237374Y-7793532D01*
X7236053Y-7799374D01*
X7235291Y-7805318D01*
X7235139Y-7811262D01*
X7235596Y-7817256D01*
X7236612Y-7823149D01*
X7238238Y-7828889D01*
X7240422Y-7834477D01*
X7243165Y-7839811D01*
X7246416Y-7844790D01*
X7250125Y-7849463D01*
X7254290Y-7853781D01*
X7258913Y-7857591D01*
X7263841Y-7860995D01*
X7269073Y-7863840D01*
X7274610Y-7866176D01*
X7280300Y-7867954D01*
X7286193Y-7869123D01*
X7292136Y-7869732D01*
X7375144Y-7869783D01*
X7381087Y-7869478D01*
X7387031Y-7868615D01*
X7392822Y-7867142D01*
X7398410Y-7865059D01*
X7403795Y-7862468D01*
X7408925Y-7859369D01*
X7413701Y-7855762D01*
X7418070Y-7851698D01*
X7422032Y-7847177D01*
X7425537Y-7842351D01*
X7428534Y-7837170D01*
X7430973Y-7831734D01*
X7432852Y-7826044D01*
X7434224Y-7820202D01*
X7434935Y-7814259D01*
X7435088Y-7808315D01*
X7434681Y-7802321D01*
X7433614Y-7796428D01*
X7431989Y-7790688D01*
X7429804Y-7785100D01*
X7427061Y-7779766D01*
X7423861Y-7774787D01*
X7420102Y-7770114D01*
X7415936Y-7765796D01*
X7411364Y-7761935D01*
X7406386Y-7758582D01*
X7401153Y-7755737D01*
X7395667Y-7753400D01*
X7389926Y-7751622D01*
X7384084Y-7750454D01*
X7378090Y-7749844D01*
G37*
G36*
X7295134Y-8614816D02*
G01*
X7289139Y-8615121D01*
X7283246Y-8615984D01*
X7277455Y-8617458D01*
X7271816Y-8619540D01*
X7266431Y-8622131D01*
X7261301Y-8625230D01*
X7256576Y-8628837D01*
X7252157Y-8632901D01*
X7248194Y-8637422D01*
X7244740Y-8642248D01*
X7241743Y-8647430D01*
X7239253Y-8652865D01*
X7237374Y-8658555D01*
X7236053Y-8664397D01*
X7235291Y-8670340D01*
X7235139Y-8676284D01*
X7235596Y-8682278D01*
X7236612Y-8688171D01*
X7238238Y-8693912D01*
X7240422Y-8699500D01*
X7243165Y-8704834D01*
X7246416Y-8709812D01*
X7250125Y-8714486D01*
X7254290Y-8718804D01*
X7258913Y-8722664D01*
X7263841Y-8726017D01*
X7269073Y-8728862D01*
X7274610Y-8731199D01*
X7280300Y-8732977D01*
X7286193Y-8734145D01*
X7292136Y-8734755D01*
X7375144Y-8734806D01*
X7381087Y-8734501D01*
X7387031Y-8733637D01*
X7392822Y-8732164D01*
X7398410Y-8730081D01*
X7403795Y-8727490D01*
X7408925Y-8724392D01*
X7413701Y-8720785D01*
X7418070Y-8716721D01*
X7422032Y-8712200D01*
X7425537Y-8707374D01*
X7428534Y-8702192D01*
X7430973Y-8696756D01*
X7432852Y-8691067D01*
X7434224Y-8685225D01*
X7434935Y-8679281D01*
X7435088Y-8673338D01*
X7434681Y-8667343D01*
X7433614Y-8661450D01*
X7431989Y-8655710D01*
X7429804Y-8650122D01*
X7427061Y-8644788D01*
X7423861Y-8639810D01*
X7420102Y-8635136D01*
X7415936Y-8630818D01*
X7411364Y-8626957D01*
X7406386Y-8623604D01*
X7401153Y-8620760D01*
X7395667Y-8618423D01*
X7389926Y-8616645D01*
X7384084Y-8615476D01*
X7378090Y-8614867D01*
G37*
G36*
X7723124Y-7749794D02*
G01*
X7717129Y-7750098D01*
X7711236Y-7750962D01*
X7705445Y-7752435D01*
X7699806Y-7754518D01*
X7694422Y-7757109D01*
X7689291Y-7760208D01*
X7684566Y-7763814D01*
X7680147Y-7767878D01*
X7676184Y-7772400D01*
X7672730Y-7777225D01*
X7669733Y-7782407D01*
X7667244Y-7787843D01*
X7665364Y-7793532D01*
X7664043Y-7799374D01*
X7663281Y-7805318D01*
X7663129Y-7811262D01*
X7663586Y-7817256D01*
X7664602Y-7823149D01*
X7666228Y-7828889D01*
X7668412Y-7834477D01*
X7671155Y-7839811D01*
X7674406Y-7844790D01*
X7678115Y-7849463D01*
X7682280Y-7853781D01*
X7686903Y-7857591D01*
X7691831Y-7860995D01*
X7697063Y-7863840D01*
X7702600Y-7866176D01*
X7708290Y-7867954D01*
X7714183Y-7869123D01*
X7720126Y-7869732D01*
X7783118Y-7869783D01*
X7789062Y-7869478D01*
X7795006Y-7868615D01*
X7800797Y-7867142D01*
X7806436Y-7865059D01*
X7811820Y-7862468D01*
X7816900Y-7859369D01*
X7821675Y-7855762D01*
X7826044Y-7851698D01*
X7830007Y-7847177D01*
X7833512Y-7842351D01*
X7836509Y-7837170D01*
X7838948Y-7831734D01*
X7840878Y-7826044D01*
X7842199Y-7820202D01*
X7842961Y-7814259D01*
X7843113Y-7808315D01*
X7842656Y-7802321D01*
X7841589Y-7796428D01*
X7839964Y-7790688D01*
X7837779Y-7785100D01*
X7835087Y-7779766D01*
X7831836Y-7774787D01*
X7828076Y-7770114D01*
X7823911Y-7765796D01*
X7819339Y-7761935D01*
X7814411Y-7758582D01*
X7809128Y-7755737D01*
X7803642Y-7753400D01*
X7797901Y-7751622D01*
X7792059Y-7750454D01*
X7786116Y-7749844D01*
G37*
G36*
X7723124Y-8614816D02*
G01*
X7717129Y-8615121D01*
X7711236Y-8615984D01*
X7705445Y-8617458D01*
X7699806Y-8619540D01*
X7694422Y-8622131D01*
X7689291Y-8625230D01*
X7684566Y-8628837D01*
X7680147Y-8632901D01*
X7676184Y-8637422D01*
X7672730Y-8642248D01*
X7669733Y-8647430D01*
X7667244Y-8652865D01*
X7665364Y-8658555D01*
X7664043Y-8664397D01*
X7663281Y-8670340D01*
X7663129Y-8676284D01*
X7663586Y-8682278D01*
X7664602Y-8688171D01*
X7666228Y-8693912D01*
X7668412Y-8699500D01*
X7671155Y-8704834D01*
X7674406Y-8709812D01*
X7678115Y-8714486D01*
X7682280Y-8718804D01*
X7686903Y-8722664D01*
X7691831Y-8726017D01*
X7697063Y-8728862D01*
X7702600Y-8731199D01*
X7708290Y-8732977D01*
X7714183Y-8734145D01*
X7720126Y-8734755D01*
X7783118Y-8734806D01*
X7789062Y-8734501D01*
X7795006Y-8733637D01*
X7800797Y-8732164D01*
X7806436Y-8730081D01*
X7811820Y-8727490D01*
X7816900Y-8724392D01*
X7821675Y-8720785D01*
X7826044Y-8716721D01*
X7830007Y-8712200D01*
X7833512Y-8707374D01*
X7836509Y-8702192D01*
X7838948Y-8696756D01*
X7840878Y-8691067D01*
X7842199Y-8685225D01*
X7842961Y-8679281D01*
X7843113Y-8673338D01*
X7842656Y-8667343D01*
X7841589Y-8661450D01*
X7839964Y-8655710D01*
X7837779Y-8650122D01*
X7835087Y-8644788D01*
X7831836Y-8639810D01*
X7828076Y-8635136D01*
X7823911Y-8630818D01*
X7819339Y-8626957D01*
X7814411Y-8623604D01*
X7809128Y-8620760D01*
X7803642Y-8618423D01*
X7797901Y-8616645D01*
X7792059Y-8615476D01*
X7786116Y-8614867D01*
G37*
G36*
X7193280Y-8452307D02*
G01*
X7193280Y-8512302D01*
X7323277Y-8512302D01*
X7323277Y-8452307D01*
G37*
G36*
X1819300Y-9700717D02*
G01*
X1814322Y-9705695D01*
X1814322Y-9750704D01*
X1819300Y-9755682D01*
X1867306Y-9755682D01*
X1874316Y-9750704D01*
X1874316Y-9705695D01*
X1867306Y-9700717D01*
G37*
G36*
X1917293Y-9700717D02*
G01*
X1910283Y-9705695D01*
X1910283Y-9750704D01*
X1917293Y-9755682D01*
X1965299Y-9755682D01*
X1970278Y-9750704D01*
X1970278Y-9705695D01*
X1965299Y-9700717D01*
G37*
G36*
X1917293Y-9230817D02*
G01*
X1910283Y-9235795D01*
X1910283Y-9280804D01*
X1917293Y-9285782D01*
X1965299Y-9285782D01*
X1970278Y-9280804D01*
X1970278Y-9235795D01*
X1965299Y-9230817D01*
G37*
G36*
X1819300Y-9230817D02*
G01*
X1814322Y-9235795D01*
X1814322Y-9280804D01*
X1819300Y-9285782D01*
X1867306Y-9285782D01*
X1874316Y-9280804D01*
X1874316Y-9235795D01*
X1867306Y-9230817D01*
G37*
G36*
X4379010Y-8900312D02*
G01*
X4373981Y-8905290D01*
X4373981Y-9020302D01*
X4379010Y-9025280D01*
X4420006Y-9025788D01*
X4420006Y-8980779D01*
X4465015Y-8980779D01*
X4465015Y-9024823D01*
X4506976Y-9025280D01*
X4512005Y-9020302D01*
X4512005Y-8905290D01*
X4506976Y-8900312D01*
G37*
G36*
X4379010Y-9115298D02*
G01*
X4373981Y-9120276D01*
X4373981Y-9235287D01*
X4379010Y-9240316D01*
X4506976Y-9240316D01*
X4512005Y-9235287D01*
X4512005Y-9120276D01*
X4506976Y-9115298D01*
X4465015Y-9115298D01*
X4465015Y-9159798D01*
X4420006Y-9159798D01*
X4420006Y-9115806D01*
G37*
G36*
X2445918Y-8400491D02*
G01*
X2440889Y-8405520D01*
X2440889Y-8485479D01*
X2445918Y-8490508D01*
X2525877Y-8490508D01*
X2530906Y-8485479D01*
X2530906Y-8461298D01*
X2493924Y-8461298D01*
X2493924Y-8428278D01*
X2530906Y-8428278D01*
X2530906Y-8405520D01*
X2525877Y-8400491D01*
G37*
G36*
X2605887Y-8400491D02*
G01*
X2600909Y-8405520D01*
X2600909Y-8428278D01*
X2638907Y-8428278D01*
X2638907Y-8461298D01*
X2600909Y-8461298D01*
X2600909Y-8485479D01*
X2605887Y-8490508D01*
X2684881Y-8490508D01*
X2689910Y-8485479D01*
X2689910Y-8405520D01*
X2684881Y-8400491D01*
G37*
G36*
X5787136Y-8164474D02*
G01*
X5783122Y-8168487D01*
X5783122Y-8214512D01*
X5787136Y-8218525D01*
X5837174Y-8218525D01*
X5841187Y-8214512D01*
X5841187Y-8168487D01*
X5837174Y-8164474D01*
G37*
G36*
X5872226Y-8164474D02*
G01*
X5868212Y-8168487D01*
X5868212Y-8214512D01*
X5872226Y-8218525D01*
X5922264Y-8218525D01*
X5926277Y-8214512D01*
X5926277Y-8168487D01*
X5922264Y-8164474D01*
G37*
G36*
X5787136Y-8342274D02*
G01*
X5783122Y-8346287D01*
X5783122Y-8392312D01*
X5787136Y-8396325D01*
X5837174Y-8396325D01*
X5841187Y-8392312D01*
X5841187Y-8346287D01*
X5837174Y-8342274D01*
G37*
G36*
X5872226Y-8342274D02*
G01*
X5868212Y-8346287D01*
X5868212Y-8392312D01*
X5872226Y-8396325D01*
X5922264Y-8396325D01*
X5926277Y-8392312D01*
X5926277Y-8346287D01*
X5922264Y-8342274D01*
G37*
G36*
X5344820Y-9165793D02*
G01*
X5339791Y-9170822D01*
X5339791Y-9250781D01*
X5344820Y-9255810D01*
X5424779Y-9255810D01*
X5429808Y-9250781D01*
X5429808Y-9170822D01*
X5424779Y-9165793D01*
X5400598Y-9165793D01*
X5400598Y-9202826D01*
X5367578Y-9202826D01*
X5367578Y-9165793D01*
G37*
G36*
X5344820Y-9006789D02*
G01*
X5339791Y-9011818D01*
X5339791Y-9090812D01*
X5344820Y-9095790D01*
X5367578Y-9095790D01*
X5367578Y-9057792D01*
X5400598Y-9057792D01*
X5400598Y-9095790D01*
X5424779Y-9095790D01*
X5429808Y-9090812D01*
X5429808Y-9011818D01*
X5424779Y-9006789D01*
G37*
G36*
X6591401Y-7906613D02*
G01*
X6586372Y-7911592D01*
X6586372Y-8039608D01*
X6591401Y-8044586D01*
X6706412Y-8044586D01*
X6711391Y-8039608D01*
X6711899Y-7998612D01*
X6666890Y-7998612D01*
X6666890Y-7953603D01*
X6710883Y-7953603D01*
X6711391Y-7911592D01*
X6706412Y-7906613D01*
G37*
G36*
X6806387Y-7906613D02*
G01*
X6801408Y-7911592D01*
X6801408Y-7953603D01*
X6845909Y-7953603D01*
X6845909Y-7998612D01*
X6801916Y-7998612D01*
X6801408Y-8039608D01*
X6806387Y-8044586D01*
X6921398Y-8044586D01*
X6926376Y-8039608D01*
X6926376Y-7911592D01*
X6921398Y-7906613D01*
G37*
G36*
X6591401Y-8528913D02*
G01*
X6586372Y-8533892D01*
X6586372Y-8661908D01*
X6591401Y-8666886D01*
X6706412Y-8666886D01*
X6711391Y-8661908D01*
X6711899Y-8620912D01*
X6666890Y-8620912D01*
X6666890Y-8575903D01*
X6710883Y-8575903D01*
X6711391Y-8533892D01*
X6706412Y-8528913D01*
G37*
G36*
X6806387Y-8528913D02*
G01*
X6801408Y-8533892D01*
X6801408Y-8575903D01*
X6845909Y-8575903D01*
X6845909Y-8620912D01*
X6801916Y-8620912D01*
X6801408Y-8661908D01*
X6806387Y-8666886D01*
X6921398Y-8666886D01*
X6926376Y-8661908D01*
X6926376Y-8533892D01*
X6921398Y-8528913D01*
G37*
G36*
X1840992Y-198272D02*
G01*
X1836013Y-203301D01*
X1836013Y-318312D01*
X1840992Y-323291D01*
X1881987Y-323799D01*
X1881987Y-278790D01*
X1926996Y-278790D01*
X1926996Y-322783D01*
X1969007Y-323291D01*
X1973986Y-318312D01*
X1973986Y-203301D01*
X1969007Y-198272D01*
G37*
G36*
X1840992Y-413308D02*
G01*
X1836013Y-418287D01*
X1836013Y-533298D01*
X1840992Y-538276D01*
X1969007Y-538276D01*
X1973986Y-533298D01*
X1973986Y-418287D01*
X1969007Y-413308D01*
X1926996Y-413308D01*
X1926996Y-457809D01*
X1881987Y-457809D01*
X1881987Y-413816D01*
G37*
G36*
X5650992Y-198272D02*
G01*
X5646013Y-203301D01*
X5646013Y-318312D01*
X5650992Y-323291D01*
X5691987Y-323799D01*
X5691987Y-278790D01*
X5736996Y-278790D01*
X5736996Y-322783D01*
X5779008Y-323291D01*
X5783986Y-318312D01*
X5783986Y-203301D01*
X5779008Y-198272D01*
G37*
G36*
X5650992Y-413308D02*
G01*
X5646013Y-418287D01*
X5646013Y-533298D01*
X5650992Y-538276D01*
X5779008Y-538276D01*
X5783986Y-533298D01*
X5783986Y-418287D01*
X5779008Y-413308D01*
X5736996Y-413308D01*
X5736996Y-457809D01*
X5691987Y-457809D01*
X5691987Y-413816D01*
G37*
G36*
X1828292Y-2090572D02*
G01*
X1823313Y-2095601D01*
X1823313Y-2210612D01*
X1828292Y-2215591D01*
X1869287Y-2216099D01*
X1869287Y-2171090D01*
X1914296Y-2171090D01*
X1914296Y-2215083D01*
X1956307Y-2215591D01*
X1961286Y-2210612D01*
X1961286Y-2095601D01*
X1956307Y-2090572D01*
G37*
G36*
X1828292Y-2305608D02*
G01*
X1823313Y-2310587D01*
X1823313Y-2425598D01*
X1828292Y-2430576D01*
X1956307Y-2430576D01*
X1961286Y-2425598D01*
X1961286Y-2310587D01*
X1956307Y-2305608D01*
X1914296Y-2305608D01*
X1914296Y-2350109D01*
X1869287Y-2350109D01*
X1869287Y-2306116D01*
G37*
G36*
X5650992Y-2090572D02*
G01*
X5646013Y-2095601D01*
X5646013Y-2210612D01*
X5650992Y-2215591D01*
X5691987Y-2216099D01*
X5691987Y-2171090D01*
X5736996Y-2171090D01*
X5736996Y-2215083D01*
X5779008Y-2215591D01*
X5783986Y-2210612D01*
X5783986Y-2095601D01*
X5779008Y-2090572D01*
G37*
G36*
X5650992Y-2305608D02*
G01*
X5646013Y-2310587D01*
X5646013Y-2425598D01*
X5650992Y-2430576D01*
X5779008Y-2430576D01*
X5783986Y-2425598D01*
X5783986Y-2310587D01*
X5779008Y-2305608D01*
X5736996Y-2305608D01*
X5736996Y-2350109D01*
X5691987Y-2350109D01*
X5691987Y-2306116D01*
G37*
G36*
X1828292Y-4008272D02*
G01*
X1823313Y-4013301D01*
X1823313Y-4128312D01*
X1828292Y-4133291D01*
X1869287Y-4133799D01*
X1869287Y-4088790D01*
X1914296Y-4088790D01*
X1914296Y-4132783D01*
X1956307Y-4133291D01*
X1961286Y-4128312D01*
X1961286Y-4013301D01*
X1956307Y-4008272D01*
G37*
G36*
X1828292Y-4223308D02*
G01*
X1823313Y-4228287D01*
X1823313Y-4343298D01*
X1828292Y-4348276D01*
X1956307Y-4348276D01*
X1961286Y-4343298D01*
X1961286Y-4228287D01*
X1956307Y-4223308D01*
X1914296Y-4223308D01*
X1914296Y-4267809D01*
X1869287Y-4267809D01*
X1869287Y-4223816D01*
G37*
G36*
X5663692Y-3995572D02*
G01*
X5658713Y-4000601D01*
X5658713Y-4115612D01*
X5663692Y-4120591D01*
X5704687Y-4121099D01*
X5704687Y-4076090D01*
X5749696Y-4076090D01*
X5749696Y-4120083D01*
X5791708Y-4120591D01*
X5796686Y-4115612D01*
X5796686Y-4000601D01*
X5791708Y-3995572D01*
G37*
G36*
X5663692Y-4210608D02*
G01*
X5658713Y-4215587D01*
X5658713Y-4330598D01*
X5663692Y-4335576D01*
X5791708Y-4335576D01*
X5796686Y-4330598D01*
X5796686Y-4215587D01*
X5791708Y-4210608D01*
X5749696Y-4210608D01*
X5749696Y-4255109D01*
X5704687Y-4255109D01*
X5704687Y-4211116D01*
G37*
G36*
X1840992Y-5938672D02*
G01*
X1836013Y-5943701D01*
X1836013Y-6058712D01*
X1840992Y-6063691D01*
X1881987Y-6064199D01*
X1881987Y-6019190D01*
X1926996Y-6019190D01*
X1926996Y-6063183D01*
X1969007Y-6063691D01*
X1973986Y-6058712D01*
X1973986Y-5943701D01*
X1969007Y-5938672D01*
G37*
G36*
X1840992Y-6153708D02*
G01*
X1836013Y-6158687D01*
X1836013Y-6273698D01*
X1840992Y-6278676D01*
X1969007Y-6278676D01*
X1973986Y-6273698D01*
X1973986Y-6158687D01*
X1969007Y-6153708D01*
X1926996Y-6153708D01*
X1926996Y-6198209D01*
X1881987Y-6198209D01*
X1881987Y-6154216D01*
G37*
G36*
X5663692Y-5913272D02*
G01*
X5658713Y-5918301D01*
X5658713Y-6033312D01*
X5663692Y-6038291D01*
X5704687Y-6038799D01*
X5704687Y-5993790D01*
X5749696Y-5993790D01*
X5749696Y-6037783D01*
X5791708Y-6038291D01*
X5796686Y-6033312D01*
X5796686Y-5918301D01*
X5791708Y-5913272D01*
G37*
G36*
X5663692Y-6128308D02*
G01*
X5658713Y-6133287D01*
X5658713Y-6248298D01*
X5663692Y-6253276D01*
X5791708Y-6253276D01*
X5796686Y-6248298D01*
X5796686Y-6133287D01*
X5791708Y-6128308D01*
X5749696Y-6128308D01*
X5749696Y-6172809D01*
X5704687Y-6172809D01*
X5704687Y-6128816D01*
G37*
D10*
G01*
X2705100Y-9455302D03*
G01*
X2705100Y-9315297D03*
D11*
G01*
X3687432Y-9780955D03*
D12*
G01*
X3827424Y-9780955D03*
D13*
G01*
X5918212Y-5127447D03*
D14*
G01*
X5918212Y-5565940D03*
G01*
X5918212Y-3222459D03*
G01*
X5918212Y-3660940D03*
G01*
X5918187Y-1317459D03*
D13*
G01*
X5918187Y-1755952D03*
D15*
G01*
X4013200Y-1317459D03*
G01*
X4013200Y-1755940D03*
D13*
G01*
X4013212Y-3222447D03*
D14*
G01*
X4013212Y-3660940D03*
G01*
X4013212Y-5127434D03*
G01*
X4013212Y-5565940D03*
D15*
G01*
X3962400Y-7057859D03*
G01*
X3962400Y-7496340D03*
D14*
G01*
X2108187Y-1317459D03*
G01*
X2108187Y-1755965D03*
D15*
G01*
X2108200Y-3222459D03*
D16*
G01*
X2108200Y-3660952D03*
D15*
G01*
X2108200Y-5127459D03*
G01*
X2108200Y-5565940D03*
D16*
G01*
X2108200Y-7033463D03*
D15*
G01*
X2108200Y-7471956D03*
D14*
G01*
X215887Y-1316469D03*
G01*
X215887Y-1754949D03*
D13*
G01*
X215887Y-3221456D03*
D14*
G01*
X215887Y-3659949D03*
G01*
X215887Y-5126443D03*
G01*
X215887Y-5564949D03*
G01*
X215887Y-7032459D03*
G01*
X215887Y-7470940D03*
D13*
G01*
X5918212Y-7033463D03*
D14*
G01*
X5918212Y-7471956D03*
D17*
G01*
X4075887Y-8510955D03*
G01*
X4075887Y-8589695D03*
G01*
X4075887Y-8668435D03*
G01*
X4075887Y-8747175D03*
G01*
X4075887Y-8825915D03*
G01*
X4075887Y-8904655D03*
G01*
X4075887Y-8983395D03*
G01*
X4075887Y-9062135D03*
G01*
X4075887Y-9140875D03*
G01*
X4075887Y-9219615D03*
G01*
X4075887Y-9298355D03*
D18*
G01*
X3884447Y-9489795D03*
G01*
X3805707Y-9489795D03*
G01*
X3726967Y-9489795D03*
G01*
X3648227Y-9489795D03*
G01*
X3569487Y-9489795D03*
G01*
X3490747Y-9489795D03*
G01*
X3412007Y-9489795D03*
G01*
X3333267Y-9489795D03*
G01*
X3254527Y-9489795D03*
G01*
X3175787Y-9489795D03*
G01*
X3097047Y-9489795D03*
D17*
G01*
X2905607Y-9298355D03*
G01*
X2905607Y-9219615D03*
G01*
X2905607Y-9140875D03*
G01*
X2905607Y-9062135D03*
G01*
X2905607Y-8983395D03*
G01*
X2905607Y-8904655D03*
G01*
X2905607Y-8825915D03*
G01*
X2905607Y-8747175D03*
G01*
X2905607Y-8668435D03*
G01*
X2905607Y-8589695D03*
G01*
X2905607Y-8510955D03*
D18*
G01*
X3097047Y-8319515D03*
G01*
X3175787Y-8319515D03*
G01*
X3254527Y-8319515D03*
G01*
X3333267Y-8319515D03*
G01*
X3412007Y-8319515D03*
G01*
X3490747Y-8319515D03*
G01*
X3569487Y-8319515D03*
G01*
X3648227Y-8319515D03*
G01*
X3726967Y-8319515D03*
G01*
X3805707Y-8319515D03*
G01*
X3884447Y-8319515D03*
D12*
G01*
X2952902Y-8128000D03*
G01*
X2812897Y-8128000D03*
D19*
G01*
X1962302Y-9444596D03*
G01*
X1962302Y-9554603D03*
D20*
G01*
X1822310Y-9554603D03*
G01*
X1822310Y-9444596D03*
D21*
G01*
X4457700Y-8272500D03*
G01*
X4457700Y-7983499D03*
D22*
G01*
X5727890Y-9405226D03*
G01*
X6387909Y-9405226D03*
G01*
X5727890Y-9035173D03*
G01*
X6387909Y-9035173D03*
D23*
G01*
X6338506Y-8170392D03*
D24*
G01*
X6508496Y-8170392D03*
D25*
G01*
X6508496Y-8390394D03*
G01*
X6318503Y-8390394D03*
D26*
G01*
X1225296Y-7898701D03*
G01*
X1130300Y-8128698D03*
G01*
X1035303Y-7898701D03*
D12*
G01*
X3828897Y-8064500D03*
G01*
X3968902Y-8064500D03*
M02*
